<svg xmlns="http://www.w3.org/2000/svg" width="585" height="783" version="1.2"><path d="m217 32-13 4-15 6-18 9-18 8-18 9-27 12-6 4-8 1-10 8-12 11-12 18-4 13-4 12-4 12-4 17-1 17-2 11-1 9-3 9v12l-2 11-4 8-4 10v7l9 9 9 3 18 7 16 3 14 2 9 1 8-1 8-5 4-6 7 2-1 11-1 12 1 9 1 9 2 12 4 6-1 6v15l-1 15-1 6 2 9 5 8 2 6-3 13-6 11-4 8-2 11v27l-1 11v10l-7 12-8 8-1 6 1 7v6l-3 11v7l-2 7-4 8-1 7-4 8-4 10-1 8v11l-2 10-2 7 16 4 14 2 9 5 12 10 8 7 9 9 12 7 13 10 8 7 6 1 20 5 18 1h15l17 2 19 2 14 4 8 1 11-8 12-9 15-8 8-7 7-8 7-5 14-2 22-5 8 1 6 1 12-6 4-9 5-10 6-8v-10l-1-10-1-8-2-6-1-6 4-13 3-8 1-13-3-6-2-18 2-14 3-13v-15l3-12 1-14v-11l-1-10 1-8 3-8 3-10v-11l1-12 4-12 2-11 1-10 3-12 2-12 3-13 2-10 2-13 7 13 9 1 15-1 14-4 18-6 13-5 13-7 10-7 7-4-1-8-3-8-3-8-6-17-4-15-4-15-4-14-5-18-5-14-5-19-7-19-8-11-6-11-8-10-23-13-17-6-25-11-19-7-17-7-21-10-21-8 10 12-4 11-14 19-18 15-21 10-16 2-19 1-21-3-15-5-19-9-12-12-5-12-3-13z" style="fill:red"/></svg>